<svg xmlns="http://www.w3.org/2000/svg" xmlns:xlink="http://www.w3.org/1999/xlink" width="121" zoomAndPan="magnify" viewBox="0 0 90.75 30.000001" height="40" preserveAspectRatio="xMidYMid meet" version="1.0"><defs><g/></defs><g fill="#008037" fill-opacity="1"><g transform="translate(37.08648, 15.358885)"><g><path d="M 1.203125 -0.875 L 0.5625 -0.875 L 0.5625 -0.34375 L 1.3125 -0.34375 L 1.3125 0 L 0.15625 0 L 0.15625 -2.015625 L 1.3125 -2.015625 L 1.3125 -1.671875 L 0.5625 -1.671875 L 0.5625 -1.203125 L 1.203125 -1.203125 Z M 1.203125 -0.875 "/></g></g></g><g fill="#008037" fill-opacity="1"><g transform="translate(38.471332, 15.358885)"><g><path d="M 1.53125 -0.671875 C 1.519531 -0.441406 1.453125 -0.265625 1.328125 -0.140625 C 1.210938 -0.0234375 1.046875 0.03125 0.828125 0.03125 C 0.597656 0.03125 0.421875 -0.0390625 0.296875 -0.1875 C 0.179688 -0.34375 0.125 -0.5625 0.125 -0.84375 L 0.125 -1.171875 C 0.125 -1.453125 0.1875 -1.664062 0.3125 -1.8125 C 0.4375 -1.957031 0.609375 -2.03125 0.828125 -2.03125 C 1.046875 -2.03125 1.210938 -1.96875 1.328125 -1.84375 C 1.441406 -1.726562 1.507812 -1.554688 1.53125 -1.328125 L 1.125 -1.328125 C 1.113281 -1.472656 1.085938 -1.570312 1.046875 -1.625 C 1.015625 -1.675781 0.941406 -1.703125 0.828125 -1.703125 C 0.722656 -1.703125 0.644531 -1.660156 0.59375 -1.578125 C 0.550781 -1.503906 0.53125 -1.382812 0.53125 -1.21875 L 0.53125 -0.828125 C 0.53125 -0.628906 0.550781 -0.492188 0.59375 -0.421875 C 0.644531 -0.347656 0.722656 -0.3125 0.828125 -0.3125 C 0.929688 -0.3125 1.003906 -0.335938 1.046875 -0.390625 C 1.085938 -0.441406 1.113281 -0.535156 1.125 -0.671875 Z M 1.53125 -0.671875 "/></g></g></g><g fill="#008037" fill-opacity="1"><g transform="translate(40.080792, 15.358885)"><g><path d="M 1.578125 -0.828125 C 1.578125 -0.554688 1.507812 -0.34375 1.375 -0.1875 C 1.25 -0.0390625 1.078125 0.03125 0.859375 0.03125 C 0.628906 0.03125 0.445312 -0.0390625 0.3125 -0.1875 C 0.1875 -0.34375 0.125 -0.550781 0.125 -0.8125 L 0.125 -1.15625 C 0.125 -1.4375 0.1875 -1.648438 0.3125 -1.796875 C 0.445312 -1.953125 0.628906 -2.03125 0.859375 -2.03125 C 1.078125 -2.03125 1.25 -1.953125 1.375 -1.796875 C 1.507812 -1.648438 1.578125 -1.441406 1.578125 -1.171875 Z M 1.171875 -1.15625 C 1.171875 -1.34375 1.144531 -1.476562 1.09375 -1.5625 C 1.039062 -1.65625 0.960938 -1.703125 0.859375 -1.703125 C 0.742188 -1.703125 0.660156 -1.65625 0.609375 -1.5625 C 0.554688 -1.476562 0.53125 -1.351562 0.53125 -1.1875 L 0.53125 -0.828125 C 0.53125 -0.648438 0.554688 -0.519531 0.609375 -0.4375 C 0.660156 -0.351562 0.742188 -0.3125 0.859375 -0.3125 C 0.960938 -0.3125 1.039062 -0.351562 1.09375 -0.4375 C 1.144531 -0.519531 1.171875 -0.644531 1.171875 -0.8125 Z M 1.171875 -1.15625 "/></g></g></g><g fill="#008037" fill-opacity="1"><g transform="translate(41.783954, 15.358885)"><g/></g></g><g fill="#008037" fill-opacity="1"><g transform="translate(42.434352, 15.358885)"><g><path d="M 1.46875 -1.671875 L 0.96875 -1.671875 L 0.96875 0 L 0.5625 0 L 0.5625 -1.671875 L 0.078125 -1.671875 L 0.078125 -2.015625 L 1.46875 -2.015625 Z M 1.46875 -1.671875 "/></g></g></g><g fill="#008037" fill-opacity="1"><g transform="translate(43.966647, 15.358885)"><g><path d="M 1.203125 -0.875 L 0.5625 -0.875 L 0.5625 -0.34375 L 1.3125 -0.34375 L 1.3125 0 L 0.15625 0 L 0.15625 -2.015625 L 1.3125 -2.015625 L 1.3125 -1.671875 L 0.5625 -1.671875 L 0.5625 -1.203125 L 1.203125 -1.203125 Z M 1.203125 -0.875 "/></g></g></g><g fill="#008037" fill-opacity="1"><g transform="translate(45.351499, 15.358885)"><g><path d="M 0.765625 -0.734375 L 0.5625 -0.734375 L 0.5625 0 L 0.15625 0 L 0.15625 -2.015625 L 0.8125 -2.015625 C 1.007812 -2.015625 1.164062 -1.957031 1.28125 -1.84375 C 1.394531 -1.738281 1.453125 -1.59375 1.453125 -1.40625 C 1.453125 -1.132812 1.351562 -0.945312 1.15625 -0.84375 L 1.515625 -0.015625 L 1.515625 0 L 1.078125 0 Z M 0.5625 -1.078125 L 0.796875 -1.078125 C 0.878906 -1.078125 0.941406 -1.101562 0.984375 -1.15625 C 1.023438 -1.207031 1.046875 -1.28125 1.046875 -1.375 C 1.046875 -1.570312 0.96875 -1.671875 0.8125 -1.671875 L 0.5625 -1.671875 Z M 0.5625 -1.078125 "/></g></g></g><g fill="#008037" fill-opacity="1"><g transform="translate(46.914109, 15.358885)"><g><path d="M 1.125 -0.40625 L 0.5625 -0.40625 L 0.453125 0 L 0.03125 0 L 0.65625 -2.015625 L 1.03125 -2.015625 L 1.65625 0 L 1.234375 0 Z M 0.65625 -0.75 L 1.03125 -0.75 L 0.84375 -1.46875 Z M 0.65625 -0.75 "/></g></g></g><g fill="#008037" fill-opacity="1"><g transform="translate(48.599357, 15.358885)"><g><path d="M 1.5625 0 L 1.15625 0 L 0.5625 -1.3125 L 0.5625 0 L 0.15625 0 L 0.15625 -2.015625 L 0.5625 -2.015625 L 1.15625 -0.6875 L 1.15625 -2.015625 L 1.5625 -2.015625 Z M 1.5625 0 "/></g></g></g><g fill="#008037" fill-opacity="1"><g transform="translate(50.327322, 15.358885)"><g><path d="M 1.53125 -0.234375 C 1.445312 -0.140625 1.347656 -0.0703125 1.234375 -0.03125 C 1.117188 0.0078125 1 0.03125 0.875 0.03125 C 0.632812 0.03125 0.453125 -0.0390625 0.328125 -0.1875 C 0.203125 -0.332031 0.132812 -0.539062 0.125 -0.8125 L 0.125 -1.171875 C 0.125 -1.453125 0.1875 -1.664062 0.3125 -1.8125 C 0.4375 -1.957031 0.613281 -2.03125 0.84375 -2.03125 C 1.0625 -2.03125 1.222656 -1.976562 1.328125 -1.875 C 1.441406 -1.769531 1.507812 -1.601562 1.53125 -1.375 L 1.140625 -1.375 C 1.117188 -1.5 1.085938 -1.582031 1.046875 -1.625 C 1.003906 -1.675781 0.941406 -1.703125 0.859375 -1.703125 C 0.742188 -1.703125 0.660156 -1.660156 0.609375 -1.578125 C 0.566406 -1.503906 0.539062 -1.378906 0.53125 -1.203125 L 0.53125 -0.828125 C 0.53125 -0.648438 0.554688 -0.519531 0.609375 -0.4375 C 0.671875 -0.351562 0.765625 -0.3125 0.890625 -0.3125 C 0.972656 -0.3125 1.035156 -0.328125 1.078125 -0.359375 L 1.125 -0.375 L 1.125 -0.75 L 0.84375 -0.75 L 0.84375 -1.0625 L 1.53125 -1.0625 Z M 1.53125 -0.234375 "/></g></g></g><g fill="#008037" fill-opacity="1"><g transform="translate(51.978121, 15.358885)"><g><path d="M 1.125 -0.40625 L 0.5625 -0.40625 L 0.453125 0 L 0.03125 0 L 0.65625 -2.015625 L 1.03125 -2.015625 L 1.65625 0 L 1.234375 0 Z M 0.65625 -0.75 L 1.03125 -0.75 L 0.84375 -1.46875 Z M 0.65625 -0.75 "/></g></g></g></svg>