<svg xmlns="http://www.w3.org/2000/svg" xmlns:xlink="http://www.w3.org/1999/xlink" width="500" zoomAndPan="magnify" viewBox="0 0 375 374.999991" height="500" preserveAspectRatio="xMidYMid meet" version="1.0"><defs><g/></defs><g fill="#008037" fill-opacity="1"><g transform="translate(50.300486, 211.102561)"><g><path d="M 9.171875 -22.234375 L 9.171875 -16.65625 L 18.1875 -16.65625 L 18.1875 -11.453125 L 9.171875 -11.453125 L 9.171875 -5.390625 L 19.359375 -5.390625 L 19.359375 0 L 2.4375 0 L 2.4375 -27.625 L 19.359375 -27.625 L 19.359375 -22.234375 Z M 9.171875 -22.234375 "/></g></g></g><g fill="#008037" fill-opacity="1"><g transform="translate(71.589689, 211.102561)"><g><path d="M 1.296875 -13.859375 C 1.296875 -16.585938 1.882812 -19.019531 3.0625 -21.15625 C 4.25 -23.289062 5.894531 -24.953125 8 -26.140625 C 10.113281 -27.335938 12.507812 -27.9375 15.1875 -27.9375 C 18.46875 -27.9375 21.273438 -27.070312 23.609375 -25.34375 C 25.953125 -23.613281 27.515625 -21.253906 28.296875 -18.265625 L 20.90625 -18.265625 C 20.351562 -19.421875 19.570312 -20.300781 18.5625 -20.90625 C 17.550781 -21.507812 16.398438 -21.8125 15.109375 -21.8125 C 13.035156 -21.8125 11.351562 -21.085938 10.0625 -19.640625 C 8.78125 -18.191406 8.140625 -16.265625 8.140625 -13.859375 C 8.140625 -11.441406 8.78125 -9.507812 10.0625 -8.0625 C 11.351562 -6.625 13.035156 -5.90625 15.109375 -5.90625 C 16.398438 -5.90625 17.550781 -6.207031 18.5625 -6.8125 C 19.570312 -7.414062 20.351562 -8.296875 20.90625 -9.453125 L 28.296875 -9.453125 C 27.515625 -6.453125 25.953125 -4.09375 23.609375 -2.375 C 21.273438 -0.65625 18.46875 0.203125 15.1875 0.203125 C 12.507812 0.203125 10.113281 -0.394531 8 -1.59375 C 5.894531 -2.789062 4.25 -4.453125 3.0625 -6.578125 C 1.882812 -8.703125 1.296875 -11.128906 1.296875 -13.859375 Z M 1.296875 -13.859375 "/></g></g></g><g fill="#008037" fill-opacity="1"><g transform="translate(101.575587, 211.102561)"><g><path d="M 15.5 0.28125 C 12.90625 0.28125 10.523438 -0.320312 8.359375 -1.53125 C 6.191406 -2.738281 4.472656 -4.425781 3.203125 -6.59375 C 1.929688 -8.757812 1.296875 -11.191406 1.296875 -13.890625 C 1.296875 -16.597656 1.929688 -19.023438 3.203125 -21.171875 C 4.472656 -23.328125 6.191406 -25.007812 8.359375 -26.21875 C 10.523438 -27.425781 12.90625 -28.03125 15.5 -28.03125 C 18.101562 -28.03125 20.488281 -27.425781 22.65625 -26.21875 C 24.820312 -25.007812 26.523438 -23.328125 27.765625 -21.171875 C 29.015625 -19.023438 29.640625 -16.597656 29.640625 -13.890625 C 29.640625 -11.191406 29.007812 -8.757812 27.75 -6.59375 C 26.488281 -4.425781 24.78125 -2.738281 22.625 -1.53125 C 20.476562 -0.320312 18.101562 0.28125 15.5 0.28125 Z M 15.5 -5.859375 C 17.707031 -5.859375 19.472656 -6.59375 20.796875 -8.0625 C 22.117188 -9.53125 22.78125 -11.472656 22.78125 -13.890625 C 22.78125 -16.328125 22.117188 -18.273438 20.796875 -19.734375 C 19.472656 -21.191406 17.707031 -21.921875 15.5 -21.921875 C 13.269531 -21.921875 11.492188 -21.195312 10.171875 -19.75 C 8.847656 -18.3125 8.1875 -16.359375 8.1875 -13.890625 C 8.1875 -11.453125 8.847656 -9.503906 10.171875 -8.046875 C 11.492188 -6.585938 13.269531 -5.859375 15.5 -5.859375 Z M 15.5 -5.859375 "/></g></g></g><g fill="#008037" fill-opacity="1"><g transform="translate(132.505933, 211.102561)"><g/></g></g><g fill="#008037" fill-opacity="1"><g transform="translate(140.848469, 211.102561)"><g><path d="M 22.3125 -27.625 L 22.3125 -22.234375 L 15 -22.234375 L 15 0 L 8.265625 0 L 8.265625 -22.234375 L 0.9375 -22.234375 L 0.9375 -27.625 Z M 22.3125 -27.625 "/></g></g></g><g fill="#008037" fill-opacity="1"><g transform="translate(164.105253, 211.102561)"><g><path d="M 9.171875 -22.234375 L 9.171875 -16.65625 L 18.1875 -16.65625 L 18.1875 -11.453125 L 9.171875 -11.453125 L 9.171875 -5.390625 L 19.359375 -5.390625 L 19.359375 0 L 2.4375 0 L 2.4375 -27.625 L 19.359375 -27.625 L 19.359375 -22.234375 Z M 9.171875 -22.234375 "/></g></g></g><g fill="#008037" fill-opacity="1"><g transform="translate(185.394456, 211.102561)"><g><path d="M 16.53125 0 L 10.78125 -10.4375 L 9.171875 -10.4375 L 9.171875 0 L 2.4375 0 L 2.4375 -27.625 L 13.734375 -27.625 C 15.910156 -27.625 17.765625 -27.242188 19.296875 -26.484375 C 20.835938 -25.722656 21.988281 -24.679688 22.75 -23.359375 C 23.507812 -22.035156 23.890625 -20.5625 23.890625 -18.9375 C 23.890625 -17.09375 23.367188 -15.445312 22.328125 -14 C 21.296875 -12.5625 19.769531 -11.539062 17.75 -10.9375 L 24.125 0 Z M 9.171875 -15.1875 L 13.34375 -15.1875 C 14.570312 -15.1875 15.492188 -15.488281 16.109375 -16.09375 C 16.734375 -16.695312 17.046875 -17.550781 17.046875 -18.65625 C 17.046875 -19.707031 16.734375 -20.535156 16.109375 -21.140625 C 15.492188 -21.742188 14.570312 -22.046875 13.34375 -22.046875 L 9.171875 -22.046875 Z M 9.171875 -15.1875 "/></g></g></g><g fill="#008037" fill-opacity="1"><g transform="translate(211.051685, 211.102561)"><g><path d="M 19.640625 -4.875 L 9.328125 -4.875 L 7.671875 0 L 0.625 0 L 10.625 -27.625 L 18.421875 -27.625 L 28.421875 0 L 21.296875 0 Z M 17.90625 -10.078125 L 14.484375 -20.1875 L 11.09375 -10.078125 Z M 17.90625 -10.078125 "/></g></g></g><g fill="#008037" fill-opacity="1"><g transform="translate(240.053804, 211.102561)"><g><path d="M 27.15625 0 L 20.421875 0 L 9.171875 -17.046875 L 9.171875 0 L 2.4375 0 L 2.4375 -27.625 L 9.171875 -27.625 L 20.421875 -10.515625 L 20.421875 -27.625 L 27.15625 -27.625 Z M 27.15625 0 "/></g></g></g><g fill="#008037" fill-opacity="1"><g transform="translate(269.646198, 211.102561)"><g><path d="M 20.78125 -18.890625 C 20.28125 -19.804688 19.5625 -20.503906 18.625 -20.984375 C 17.695312 -21.472656 16.601562 -21.71875 15.34375 -21.71875 C 13.164062 -21.71875 11.421875 -21.003906 10.109375 -19.578125 C 8.796875 -18.148438 8.140625 -16.242188 8.140625 -13.859375 C 8.140625 -11.304688 8.828125 -9.316406 10.203125 -7.890625 C 11.585938 -6.460938 13.488281 -5.75 15.90625 -5.75 C 17.550781 -5.75 18.945312 -6.164062 20.09375 -7 C 21.238281 -7.84375 22.070312 -9.050781 22.59375 -10.625 L 14.046875 -10.625 L 14.046875 -15.59375 L 28.6875 -15.59375 L 28.6875 -9.328125 C 28.1875 -7.648438 27.335938 -6.085938 26.140625 -4.640625 C 24.953125 -3.203125 23.441406 -2.035156 21.609375 -1.140625 C 19.773438 -0.242188 17.703125 0.203125 15.390625 0.203125 C 12.660156 0.203125 10.222656 -0.394531 8.078125 -1.59375 C 5.941406 -2.789062 4.273438 -4.453125 3.078125 -6.578125 C 1.890625 -8.703125 1.296875 -11.128906 1.296875 -13.859375 C 1.296875 -16.585938 1.890625 -19.019531 3.078125 -21.15625 C 4.273438 -23.289062 5.9375 -24.953125 8.0625 -26.140625 C 10.1875 -27.335938 12.613281 -27.9375 15.34375 -27.9375 C 18.65625 -27.9375 21.445312 -27.132812 23.71875 -25.53125 C 25.988281 -23.9375 27.488281 -21.722656 28.21875 -18.890625 Z M 20.78125 -18.890625 "/></g></g></g><g fill="#008037" fill-opacity="1"><g transform="translate(299.632097, 211.102561)"><g><path d="M 19.640625 -4.875 L 9.328125 -4.875 L 7.671875 0 L 0.625 0 L 10.625 -27.625 L 18.421875 -27.625 L 28.421875 0 L 21.296875 0 Z M 17.90625 -10.078125 L 14.484375 -20.1875 L 11.09375 -10.078125 Z M 17.90625 -10.078125 "/></g></g></g></svg>