<svg xmlns="http://www.w3.org/2000/svg" xmlns:xlink="http://www.w3.org/1999/xlink" width="200" zoomAndPan="magnify" viewBox="0 0 150 149.999998" height="200" preserveAspectRatio="xMidYMid meet" version="1.0"><defs><clipPath id="id1"><path d="M 54.75 51.691406 L 95.207031 51.691406 L 95.207031 89.941406 L 54.75 89.941406 Z M 54.75 51.691406 " clip-rule="nonzero"/></clipPath></defs><g clip-path="url(#id1)"><path fill="#3c8d37" d="M 75.039062 70.265625 C 75.03125 70.265625 75.027344 70.265625 75.019531 70.261719 C 75.027344 70.265625 75.03125 70.265625 75.039062 70.265625 Z M 75.058594 70.265625 C 75.054688 70.265625 75.050781 70.265625 75.046875 70.265625 C 75.050781 70.265625 75.054688 70.265625 75.058594 70.265625 Z M 67.472656 57.0625 C 67.476562 56.972656 68.121094 57.34375 68.253906 57.410156 C 68.710938 57.648438 69.335938 58.035156 70.023438 58.507812 C 71.511719 59.539062 73.078125 60.789062 74.175781 62.21875 C 75.640625 64.128906 76.191406 66.265625 75.695312 69.128906 C 75.613281 69.589844 75.492188 69.984375 75.3125 70.164062 C 75.183594 69.742188 75.050781 69.304688 74.9375 68.992188 C 73.851562 66.085938 72.558594 63.714844 70.808594 61.179688 C 69.613281 59.449219 68.296875 57.738281 67.71875 57.277344 C 67.546875 57.140625 67.417969 57.027344 67.671875 57.320312 C 67.882812 57.5625 68.304688 58.027344 68.675781 58.59375 C 69.347656 59.617188 70.367188 60.960938 71.386719 62.546875 C 72.726562 64.632812 74.292969 67.65625 74.996094 70.261719 C 75 70.261719 75.007812 70.261719 75.011719 70.261719 C 74.566406 70.222656 73.738281 69.714844 72.972656 69.175781 C 71.386719 68.054688 70.277344 67.101562 69.410156 65.304688 C 68.628906 63.675781 68.144531 61.550781 67.828125 59.753906 C 67.609375 58.523438 67.460938 57.347656 67.472656 57.0625 Z M 77.246094 68.128906 C 77.242188 68.128906 77.238281 68.128906 77.234375 68.125 C 77.238281 68.128906 77.242188 68.128906 77.246094 68.128906 Z M 77.273438 68.136719 C 77.269531 68.136719 77.261719 68.132812 77.257812 68.132812 C 77.261719 68.132812 77.269531 68.136719 77.273438 68.136719 Z M 77.300781 68.140625 C 77.296875 68.140625 77.289062 68.140625 77.28125 68.136719 C 77.289062 68.140625 77.296875 68.140625 77.300781 68.140625 Z M 79.179688 57.804688 C 79.292969 57.082031 79.3125 56.84375 79.523438 57.667969 C 79.820312 58.773438 80.109375 59.957031 80.257812 61.148438 C 80.535156 63.359375 80.351562 66.085938 78.464844 67.589844 C 78.082031 67.894531 77.5625 68.167969 77.300781 68.140625 C 77.503906 67.707031 77.710938 67.28125 77.902344 66.835938 C 78.148438 66.265625 78.347656 65.679688 78.5 65.082031 C 79.097656 62.671875 79.46875 60.167969 79.390625 57.683594 C 79.371094 57.023438 79.324219 57.203125 79.320312 57.679688 C 79.308594 58.871094 79.210938 60.050781 79.046875 61.207031 C 78.828125 62.726562 78.507812 64.484375 78.007812 65.925781 C 77.78125 66.589844 77.429688 67.328125 77.101562 68.039062 C 77.019531 67.957031 76.953125 67.847656 76.898438 67.714844 C 76.195312 65.96875 77.019531 63.839844 77.734375 62.246094 C 78.085938 61.453125 78.46875 60.675781 78.75 59.726562 C 78.9375 59.089844 79.078125 58.4375 79.179688 57.804688 Z M 78.195312 71.652344 C 79.382812 69.875 81.363281 68.128906 84.085938 66.84375 C 85.816406 66.027344 88.265625 65.269531 89.664062 65.21875 C 89.742188 65.214844 89.808594 65.21875 89.824219 65.238281 C 89.835938 65.257812 89.824219 65.292969 89.78125 65.355469 C 89.710938 65.464844 89.539062 65.621094 89.351562 65.789062 C 88.925781 66.179688 88.476562 66.765625 88.097656 67.390625 C 86.699219 69.679688 86.664062 72.414062 85.570312 74.917969 C 84.390625 77.613281 82.570312 79.691406 80.007812 80.027344 C 79.65625 80.070312 79.316406 80.09375 78.996094 80.074219 C 78.664062 80.050781 78.375 79.976562 78.117188 79.859375 C 78.648438 78.875 79.167969 77.886719 79.691406 76.902344 C 82.0625 72.453125 84.605469 68.183594 89.210938 65.617188 C 89.660156 65.367188 88.917969 65.679688 88.082031 66.179688 C 87.359375 66.609375 86.597656 67.183594 86.113281 67.570312 C 85.195312 68.300781 84.328125 69.167969 83.542969 70.082031 C 81.726562 72.207031 80.441406 74.582031 79.097656 77.011719 C 78.625 77.867188 78.152344 78.71875 77.660156 79.566406 C 77.410156 79.355469 77.207031 79.078125 77.054688 78.753906 C 76.871094 78.371094 76.769531 77.941406 76.722656 77.503906 C 76.527344 75.667969 77.1875 73.164062 78.195312 71.652344 Z M 63.917969 88.339844 C 62.929688 87.785156 62.023438 87.128906 61.269531 86.425781 C 60.589844 85.792969 59.964844 85.117188 59.402344 84.445312 C 58.566406 83.453125 57.824219 82.367188 57.1875 81.207031 C 56.570312 80.074219 56.054688 78.863281 55.65625 77.585938 C 55.253906 76.3125 54.992188 75.023438 54.859375 73.746094 C 54.71875 72.429688 54.714844 71.121094 54.835938 69.835938 C 54.960938 68.527344 55.214844 67.238281 55.589844 65.992188 C 55.972656 64.730469 56.476562 63.511719 57.09375 62.355469 C 57.710938 61.195312 58.445312 60.097656 59.285156 59.078125 C 60.113281 58.066406 61.046875 57.132812 62.074219 56.292969 C 63.078125 55.464844 64.171875 54.734375 65.347656 54.105469 C 66.496094 53.492188 67.71875 52.980469 69.011719 52.589844 C 70.300781 52.195312 71.601562 51.933594 72.898438 51.800781 C 74.230469 51.664062 75.550781 51.660156 76.851562 51.777344 C 78.179688 51.902344 79.480469 52.152344 80.742188 52.527344 C 82.019531 52.902344 83.25 53.398438 84.421875 54.011719 C 85.59375 54.625 86.707031 55.347656 87.738281 56.175781 C 88.761719 56.996094 89.707031 57.917969 90.554688 58.933594 C 91.390625 59.925781 92.132812 61.007812 92.765625 62.167969 C 93.386719 63.304688 93.902344 64.511719 94.300781 65.789062 C 94.699219 67.066406 94.964844 68.351562 95.101562 69.632812 C 95.238281 70.945312 95.242188 72.253906 95.121094 73.539062 C 94.996094 74.851562 94.742188 76.140625 94.363281 77.386719 C 93.984375 78.648438 93.480469 79.863281 92.863281 81.023438 C 92.320312 82.039062 91.6875 83.007812 90.976562 83.921875 C 89.277344 86.097656 87.140625 87.902344 84.695312 89.222656 L 84.753906 89.1875 C 90.214844 85.375 93.90625 79.609375 94.3125 72.960938 C 94.453125 70.671875 94.191406 68.335938 93.472656 66.042969 C 93.089844 64.820312 92.597656 63.664062 92.003906 62.578125 C 91.398438 61.464844 90.6875 60.429688 89.886719 59.480469 C 89.074219 58.507812 88.167969 57.625 87.191406 56.839844 C 86.203125 56.046875 85.136719 55.355469 84.015625 54.769531 C 82.894531 54.183594 81.714844 53.707031 80.496094 53.347656 C 79.289062 52.992188 78.042969 52.75 76.773438 52.632812 C 75.527344 52.519531 74.257812 52.523438 72.988281 52.652344 C 71.746094 52.78125 70.5 53.03125 69.265625 53.40625 C 66.761719 54.171875 64.523438 55.394531 62.625 56.953125 C 60.652344 58.566406 59.039062 60.546875 57.859375 62.753906 C 57.269531 63.863281 56.785156 65.027344 56.421875 66.234375 C 56.0625 67.429688 55.820312 68.660156 55.699219 69.914062 C 55.582031 71.148438 55.589844 72.398438 55.71875 73.65625 C 55.851562 74.882812 56.101562 76.113281 56.484375 77.335938 C 56.863281 78.554688 57.359375 79.714844 57.953125 80.796875 C 58.546875 81.890625 59.347656 83.050781 60.273438 84.144531 C 61.019531 85.023438 61.933594 85.90625 62.976562 86.6875 C 63.945312 87.410156 65.148438 88.101562 66.429688 88.582031 C 69.660156 89.796875 74.230469 89.402344 74.464844 85.21875 C 74.492188 84.707031 74.472656 84.214844 74.171875 83.5 C 73.886719 82.8125 73.65625 81.949219 73.449219 81.308594 C 73.238281 80.652344 73.027344 80.035156 72.800781 79.4375 C 72.800781 79.433594 72.796875 79.433594 72.796875 79.429688 C 72.945312 79.363281 73.066406 79.28125 73.179688 79.171875 C 73.1875 79.191406 73.195312 79.203125 73.199219 79.222656 C 73.625 80.289062 73.964844 81.382812 74.324219 82.476562 C 74.53125 83.109375 74.679688 83.320312 74.8125 82.3125 C 74.847656 82.058594 74.878906 81.75 74.921875 81.40625 C 75.269531 78.597656 75.449219 72.828125 75.304688 71.742188 C 75.242188 71.277344 75.136719 70.785156 75 70.28125 C 75 70.273438 75 70.269531 74.996094 70.261719 C 75.121094 70.277344 75.222656 70.257812 75.3125 70.167969 C 75.316406 70.175781 75.316406 70.175781 75.316406 70.183594 C 75.378906 70.390625 75.441406 70.59375 75.5 70.773438 C 75.515625 70.816406 75.550781 70.949219 75.585938 71.085938 C 75.691406 71.472656 75.839844 71 75.90625 70.847656 C 76.242188 70.019531 76.558594 69.238281 76.941406 68.386719 C 76.992188 68.273438 77.046875 68.160156 77.097656 68.042969 C 77.148438 68.09375 77.230469 68.140625 77.300781 68.144531 C 77.179688 68.40625 77.066406 68.664062 76.953125 68.941406 C 76.738281 69.480469 76.515625 70.023438 76.335938 70.578125 C 76.167969 71.101562 76.039062 71.625 75.964844 72.167969 C 75.910156 72.574219 75.882812 72.96875 75.867188 73.363281 C 75.796875 75.300781 75.800781 77.242188 75.707031 79.175781 C 75.648438 80.390625 75.546875 81.605469 75.34375 82.796875 C 75.308594 83 75.398438 83.140625 75.539062 82.960938 C 75.839844 82.566406 76.429688 81.644531 77.160156 80.421875 C 77.328125 80.136719 77.488281 79.867188 77.652344 79.582031 C 77.789062 79.695312 77.9375 79.800781 78.105469 79.878906 C 77.921875 80.21875 77.75 80.535156 77.5625 80.875 C 76.984375 81.90625 76.414062 82.871094 75.921875 83.539062 C 75.832031 83.667969 75.730469 83.777344 75.644531 83.867188 C 75.398438 84.113281 75.277344 84.417969 75.21875 84.746094 C 75.195312 84.894531 75.179688 85.042969 75.171875 85.195312 C 74.984375 90.023438 69.8125 90.6875 66.042969 89.3125 C 65.285156 89.035156 64.566406 88.699219 63.917969 88.339844 Z M 73.589844 78.59375 C 73.484375 78.808594 73.351562 79 73.179688 79.167969 C 73.007812 78.734375 72.820312 78.308594 72.613281 77.886719 C 71.691406 76.007812 70.449219 74.222656 69.0625 72.78125 C 68.425781 72.113281 67.78125 71.566406 67.109375 71.105469 C 66.171875 70.460938 65.179688 69.996094 64.082031 69.621094 C 63.21875 69.328125 62.296875 69.085938 61.40625 68.898438 C 60.964844 68.804688 60.523438 68.726562 60.058594 68.679688 C 59.695312 68.640625 59.585938 68.667969 60.085938 68.75 C 60.363281 68.792969 60.777344 68.863281 61.21875 68.984375 C 62.089844 69.21875 63.628906 69.6875 64.8125 70.175781 C 65.738281 70.554688 66.664062 71.085938 67.503906 71.765625 C 68.34375 72.445312 69.09375 73.273438 69.71875 74.039062 C 69.9375 74.304688 70.152344 74.578125 70.355469 74.859375 C 71.46875 76.382812 72.183594 77.8125 72.796875 79.425781 C 70.242188 80.539062 66.390625 76.28125 65.328125 74.398438 C 64.769531 73.414062 64.25 72.4375 63.570312 71.558594 C 62.523438 70.203125 61.214844 69.34375 59.617188 68.726562 C 59.527344 68.6875 59.476562 68.664062 59.503906 68.644531 C 59.511719 68.636719 59.523438 68.628906 59.539062 68.621094 C 59.691406 68.527344 59.914062 68.4375 60.175781 68.355469 C 61.820312 67.839844 63.820312 67.667969 65.53125 67.875 C 67.269531 68.085938 68.9375 68.667969 70.265625 69.667969 C 71.40625 70.527344 72.328125 71.648438 72.957031 72.945312 C 73.535156 74.140625 73.878906 75.539062 73.898438 76.867188 C 73.90625 77.476562 73.835938 78.097656 73.589844 78.59375 " fill-opacity="1" fill-rule="evenodd"/></g></svg>